# Blender v3.1.2 OBJ File: ''
# www.blender.org
mtllib ben_sword.mtl
o Cube
v 0.012398 -1.000000 -0.012398
v 0.543936 -0.012398 -0.543936
v 0.012398 -1.000000 0.012398
v 0.543936 -0.012398 0.543936
v -0.543936 -0.012398 -0.543936
v -0.012398 -1.000000 -0.012398
v -0.012398 -1.000000 0.012398
v -0.543936 -0.012398 0.543936
v 0.543936 -0.012398 -0.543936
v 0.543936 -0.012398 0.543936
v -0.543936 -0.012398 -0.543936
v -0.543936 -0.012398 0.543936
v 0.850649 0.243715 -0.850649
v 0.850649 0.243715 0.850649
v -0.850649 0.243715 -0.850649
v -0.850649 0.243715 0.850649
v 0.850649 0.243715 -0.850649
v 0.850649 0.243715 0.850649
v -0.850649 0.243715 -0.850649
v -0.850649 0.243715 0.850649
v 0.801549 0.761583 -0.801549
v 0.801549 0.761583 0.801549
v -0.801549 0.761583 -0.801549
v -0.801549 0.761583 0.801549
v 0.591275 1.168080 -0.591275
v 0.591275 1.168080 0.591275
v -0.591275 1.168080 -0.591275
v -0.591275 1.168080 0.591275
v 0.400910 1.382778 -0.400910
v 0.400910 1.382778 0.400910
v -0.400910 1.382778 -0.400910
v -0.400910 1.382778 0.400910
v 0.340054 1.583583 -0.308064
v 0.340054 1.583583 0.384164
v -0.352174 1.583583 -0.308064
v -0.352174 1.583583 0.384164
v 0.340054 1.583583 -0.308064
v 0.340054 1.583583 0.384164
v -0.352174 1.583583 -0.308064
v -0.352174 1.583583 0.384164
v 0.313303 8.892071 -0.140108
v 0.313303 8.892071 0.552120
v -0.378925 8.892071 -0.140108
v -0.378925 8.892071 0.552120
v 0.525183 9.195107 -0.346095
v 0.525183 9.195107 0.772126
v -0.593037 9.195107 -0.346095
v -0.593037 9.195107 0.772126
v 0.524222 9.456466 -0.340062
v 0.524222 9.456466 0.778158
v -0.593998 9.456466 -0.340062
v -0.593998 9.456466 0.778158
v 0.746292 9.739445 -0.556640
v 0.746292 9.739445 1.007800
v -0.818148 9.739445 -0.556640
v -0.818148 9.739445 1.007800
v 0.744644 10.188951 -0.546295
v 0.744644 10.188951 1.018145
v -0.819796 10.188951 -0.546295
v -0.819796 10.188951 1.018145
v 0.387980 10.713127 -0.179486
v 0.387980 10.713127 0.675470
v -0.466976 10.713127 -0.179486
v -0.466976 10.713127 0.675470
v 0.775188 10.116551 1.046822
v 0.382843 12.108672 -0.147232
v 0.382843 12.108672 0.707723
v -0.472113 12.108672 -0.147232
v -0.472113 12.108672 0.707723
v -3.416553 12.097834 0.707723
v -4.015205 11.494759 0.693836
v -4.015205 11.494759 -0.161119
v -3.416553 12.097834 -0.147232
v -0.466976 10.713127 -0.179486
v -0.466976 10.713127 0.675470
v -4.015205 11.494759 0.693836
v -0.466976 10.713127 0.675470
v -0.466976 10.713127 -0.179486
v -4.015205 11.494759 -0.161119
v 3.056172 12.118513 -0.147232
v 3.795995 11.384116 -0.164268
v 3.795995 11.384116 0.690687
v 3.056172 12.118513 0.707723
v 3.795995 11.384116 -0.164268
v 0.387980 10.713127 -0.179486
v 0.387980 10.713127 0.675470
v 3.795995 11.384116 0.690687
v 4.183870 12.246069 0.113420
v 3.915245 12.512724 0.119606
v 3.915245 12.512724 0.430035
v 4.183870 12.246069 0.423849
v -4.236318 12.186742 0.361935
v -4.110144 12.313848 0.364862
v -4.110144 12.313848 0.184669
v -4.236318 12.186742 0.181742
v 0.379532 13.007954 -0.126445
v 0.379532 13.007954 0.728510
v -0.475424 13.007954 -0.126445
v -0.475424 13.007954 0.728510
v 0.940679 12.110726 -0.147232
v 0.940679 12.110726 0.707723
v 0.937369 13.010008 -0.126445
v 0.937369 13.010008 0.728510
v -0.977178 12.106812 0.707723
v -0.977178 12.106812 -0.147232
v -0.980489 13.006094 0.728510
v -0.980489 13.006094 -0.126445
v -0.980489 13.006094 -0.126445
v -1.301624 13.004911 0.294963
v -1.298313 12.105630 0.274176
v -0.977178 12.106812 -0.147232
v -0.977178 12.106812 0.707723
v -1.298313 12.105630 0.286315
v -1.298313 12.105630 0.274176
v -0.977178 12.106812 -0.147232
v -1.301624 13.004911 0.307102
v -0.980489 13.006094 0.728510
v -0.980489 13.006094 -0.126445
v -1.301624 13.004911 0.294963
v -0.980489 13.006094 0.728510
v -1.301624 13.004911 0.307102
v -1.298313 12.105630 0.286315
v -0.977178 12.106812 0.707723
v 0.940679 12.110726 -0.147232
v 1.264245 12.111917 0.275988
v 1.264245 12.111917 0.284503
v 0.940679 12.110726 0.707723
v 1.260934 13.011199 0.296775
v 0.937369 13.010008 -0.126445
v 0.937369 13.010008 0.728510
v 1.260934 13.011199 0.305290
v 0.301550 49.372772 0.714434
v 0.301550 49.372772 1.569389
v -0.553405 49.372772 0.714434
v -0.553405 49.372772 1.569389
v 0.859387 49.374825 0.714434
v 0.859387 49.374825 1.569389
v -1.058470 49.370911 1.569389
v -1.058470 49.370911 0.714434
v -1.379605 49.369728 1.147981
v -1.058470 49.370911 1.569389
v -1.058470 49.370911 0.714434
v -1.379605 49.369728 1.135842
v 1.182953 49.376019 1.137654
v 0.859387 49.374825 0.714434
v 0.859387 49.374825 1.569389
v 1.182953 49.376019 1.146169
v -0.047980 49.941101 1.093067
v -0.047980 49.941101 1.217039
v -0.171952 49.941101 1.093067
v -0.171952 49.941101 1.217039
v 0.032909 49.941399 1.093067
v 0.032909 49.941399 1.217039
v -0.245189 49.940830 1.217039
v -0.245189 49.940830 1.093067
v -0.291755 49.940659 1.155933
v -0.245189 49.940830 1.217039
v -0.245189 49.940830 1.093067
v -0.291755 49.940659 1.154173
v 0.079827 49.941570 1.154436
v 0.032909 49.941399 1.093067
v 0.032909 49.941399 1.217039
v 0.079827 49.941570 1.155671
vt 0.248450 0.623450
vt 0.251550 0.623450
vt 0.251550 0.626550
vt 0.248450 0.626550
vt 0.125000 0.750000
vt 0.125000 0.500000
vt 0.375000 0.500000
vt 0.375000 0.750000
vt 0.498450 0.500000
vt 0.498450 0.750000
vt 0.498450 0.500000
vt 0.498450 0.750000
vt 0.375000 0.750000
vt 0.125000 0.750000
vt 0.125000 0.500000
vt 0.375000 0.500000
vt 0.125000 0.500000
vt 0.375000 0.500000
vt 0.375000 0.750000
vt 0.125000 0.750000
vt 0.498450 0.500000
vt 0.498450 0.750000
vt 0.375000 0.750000
vt 0.125000 0.750000
vt 0.125000 0.500000
vt 0.498450 0.500000
vt 0.498450 0.750000
vt 0.375000 0.500000
vt 0.498450 0.500000
vt 0.498450 0.750000
vt 0.125000 0.500000
vt 0.375000 0.500000
vt 0.375000 0.750000
vt 0.125000 0.750000
vt 0.375000 0.750000
vt 0.125000 0.750000
vt 0.125000 0.500000
vt 0.498450 0.500000
vt 0.498450 0.750000
vt 0.375000 0.500000
vt 0.375000 0.750000
vt 0.125000 0.750000
vt 0.125000 0.500000
vt 0.498450 0.500000
vt 0.498450 0.750000
vt 0.375000 0.500000
vt 0.375000 0.750000
vt 0.125000 0.750000
vt 0.125000 0.500000
vt 0.498450 0.500000
vt 0.498450 0.750000
vt 0.375000 0.500000
vt 0.125000 0.750000
vt 0.125000 0.500000
vt 0.498450 0.500000
vt 0.498450 0.750000
vt 0.375000 0.500000
vt 0.375000 0.750000
vt 0.498450 0.500000
vt 0.498450 0.750000
vt 0.125000 0.500000
vt 0.375000 0.500000
vt 0.375000 0.750000
vt 0.125000 0.750000
vt 0.375000 0.750000
vt 0.125000 0.750000
vt 0.125000 0.500000
vt 0.498450 0.500000
vt 0.498450 0.750000
vt 0.375000 0.500000
vt 0.375000 0.750000
vt 0.125000 0.750000
vt 0.125000 0.500000
vt 0.498450 0.500000
vt 0.498450 0.750000
vt 0.375000 0.500000
vt 0.375000 0.750000
vt 0.125000 0.750000
vt 0.125000 0.500000
vt 0.498450 0.500000
vt 0.498450 0.750000
vt 0.375000 0.500000
vt 0.125000 0.750000
vt 0.125000 0.500000
vt 0.498450 0.500000
vt 0.498450 0.750000
vt 0.375000 0.500000
vt 0.375000 0.750000
vt 0.498450 0.500000
vt 0.498450 0.750000
vt 0.125000 0.500000
vt 0.375000 0.500000
vt 0.375000 0.750000
vt 0.125000 0.750000
vt 0.375000 0.750000
vt 0.125000 0.750000
vt 0.125000 0.750000
vt 0.125000 0.750000
vt 0.125000 0.750000
vt 0.125000 0.750000
vt 0.125000 0.500000
vt 0.375000 0.500000
vt 0.125000 0.500000
vt 0.125000 0.500000
vt 0.125000 0.500000
vt 0.125000 0.500000
vt 0.375000 0.750000
vt 0.375000 0.750000
vt 0.375000 0.750000
vt 0.375000 0.750000
vt 0.375000 0.500000
vt 0.375000 0.500000
vt 0.375000 0.500000
vt 0.375000 0.500000
vt 0.498450 0.500000
vt 0.498450 0.750000
vt 0.125000 0.500000
vt 0.125000 0.500000
vt 0.000000 0.000000
vt 0.000000 0.000000
vt 0.000000 0.000000
vt 0.000000 0.000000
vt 0.125000 0.500000
vt 0.125000 0.750000
vt 0.498450 0.750000
vt 0.498450 0.500000
vt 0.498450 0.500000
vt 0.498450 0.750000
vt 0.000000 0.000000
vt 0.000000 0.000000
vt 0.000000 0.000000
vt 0.000000 0.000000
vt 0.498450 0.500000
vt 0.498450 0.750000
vt 0.498450 0.500000
vt 0.498450 0.750000
vt 0.000000 0.000000
vt 0.000000 0.000000
vt 0.375000 0.750000
vt 0.375000 0.750000
vt 0.375000 0.500000
vt 0.375000 0.500000
vt 0.125000 0.750000
vt 0.125000 0.750000
vt 0.000000 0.000000
vt 0.000000 0.000000
vt 0.125000 0.500000
vt 0.375000 0.500000
vt 0.375000 0.750000
vt 0.125000 0.750000
vt 0.125000 0.750000
vt 0.125000 0.750000
vt 0.375000 0.500000
vt 0.375000 0.500000
vt 0.375000 0.750000
vt 0.375000 0.750000
vt 0.000000 0.000000
vt 0.000000 0.000000
vt 0.000000 0.000000
vt 0.000000 0.000000
vt 0.000000 0.000000
vt 0.000000 0.000000
vt 0.000000 0.000000
vt 0.000000 0.000000
vt 0.000000 0.000000
vt 0.000000 0.000000
vt 0.000000 0.000000
vt 0.000000 0.000000
vt 0.000000 0.000000
vt 0.000000 0.000000
vt 0.000000 0.000000
vt 0.000000 0.000000
vt 0.125000 0.500000
vt 0.125000 0.500000
vt 0.125000 0.750000
vt 0.125000 0.750000
vt 0.000000 0.000000
vt 0.000000 0.000000
vt 0.125000 0.500000
vt 0.125000 0.500000
vt 0.125000 0.500000
vt 0.125000 0.500000
vt 0.125000 0.500000
vt 0.125000 0.500000
vt 0.000000 0.000000
vt 0.000000 0.000000
vt 0.000000 0.000000
vt 0.000000 0.000000
vt 0.125000 0.750000
vt 0.125000 0.750000
vt 0.125000 0.750000
vt 0.125000 0.750000
vt 0.000000 0.000000
vt 0.000000 0.000000
vt 0.000000 0.000000
vt 0.000000 0.000000
vt 0.000000 0.000000
vt 0.000000 0.000000
vt 0.375000 0.500000
vt 0.375000 0.500000
vt 0.375000 0.750000
vt 0.375000 0.750000
vt 0.000000 0.000000
vt 0.000000 0.000000
vt 0.000000 0.000000
vt 0.000000 0.000000
vt 0.000000 0.000000
vt 0.000000 0.000000
vt 0.375000 0.500000
vt 0.375000 0.500000
vt 0.375000 0.750000
vt 0.375000 0.750000
vt 0.000000 0.000000
vt 0.000000 0.000000
vt 0.375000 0.750000
vt 0.375000 0.750000
vt 0.375000 0.500000
vt 0.375000 0.500000
vt 0.000000 0.000000
vt 0.000000 0.000000
vt 0.125000 0.750000
vt 0.000000 0.000000
vt 0.000000 0.000000
vt 0.000000 0.000000
vt 0.000000 0.000000
vt 0.000000 0.000000
vt 0.000000 0.000000
vt 0.125000 0.750000
vt 0.000000 0.000000
vt 0.000000 0.000000
vt 0.125000 0.500000
vt 0.000000 0.000000
vt 0.000000 0.000000
vt 0.375000 0.500000
vt 0.375000 0.500000
vt 0.000000 0.000000
vt 0.000000 0.000000
vt 0.000000 0.000000
vt 0.000000 0.000000
vt 0.375000 0.750000
vt 0.375000 0.750000
vt 0.125000 0.500000
vt 0.000000 0.000000
vt 0.000000 0.000000
vt 0.125000 0.750000
vt 0.125000 0.750000
vt 0.000000 0.000000
vt 0.000000 0.000000
vn 0.0000 -1.0000 0.0000
vn -0.8806 -0.4739 0.0000
vn 0.0000 -0.4739 -0.8806
vn 0.0000 -0.4739 0.8806
vn 0.8806 -0.4739 0.0000
vn 0.0000 0.0000 1.0000
vn 0.0000 -0.7676 -0.6410
vn 0.0000 -0.7676 0.6410
vn -0.6410 -0.7676 0.0000
vn 0.6410 -0.7676 0.0000
vn 0.9955 0.0944 0.0000
vn 0.0000 0.0944 -0.9955
vn 0.0000 0.0944 0.9955
vn -0.9955 0.0944 0.0000
vn 0.0000 0.4595 0.8882
vn -0.8882 0.4595 0.0000
vn 0.8882 0.4595 0.0000
vn 0.0000 0.4595 -0.8882
vn 0.0000 0.6634 0.7482
vn -0.7482 0.6634 0.0000
vn 0.7482 0.6634 0.0000
vn 0.0000 0.6634 -0.7482
vn 0.0000 0.0831 0.9965
vn -0.9718 0.2359 0.0000
vn 0.9570 0.2900 0.0000
vn 0.0000 0.4197 -0.9077
vn 1.0000 0.0037 0.0000
vn 0.0000 0.0230 -0.9997
vn 0.0000 -0.0230 0.9997
vn -1.0000 -0.0037 0.0000
vn 0.0000 -0.5875 0.8092
vn -0.8167 -0.5771 0.0000
vn 0.8195 -0.5730 0.0000
vn 0.0000 -0.5622 -0.8270
vn 0.0000 -0.0231 0.9997
vn 0.0000 0.0231 -0.9997
vn 0.0000 -0.6301 0.7765
vn -0.7839 -0.6209 0.0000
vn 0.7867 -0.6174 0.0000
vn 0.0000 -0.6078 -0.7941
vn 0.8268 0.5626 0.0000
vn 0.0000 0.5733 -0.8193
vn 0.0000 0.5472 0.8370
vn -0.8296 0.5584 0.0000
vn 0.0001 -0.0231 0.9997
vn -0.0001 0.0231 -0.9997
vn -0.3189 0.3370 -0.8858
vn -0.0037 1.0000 0.0000
vn -0.2151 -0.9766 0.0000
vn 0.9119 -0.4104 0.0000
vn 0.1932 -0.9812 0.0000
vn 0.7045 0.7097 0.0000
vn -0.4171 0.9089 0.0000
vn 0.2182 0.1977 0.9557
vn 0.1960 0.2197 -0.9557
vn -0.7097 0.7045 0.0000
vn -0.3393 0.3165 0.8858
vn -0.9526 -0.3044 0.0000
vn 0.2974 0.9548 0.0000
vn 0.0037 -1.0000 0.0000
vn -0.7953 0.0111 -0.6061
vn -0.7952 -0.0169 0.6061
vn 0.7943 0.0170 -0.6073
vn 0.7944 -0.0111 0.6073
vn -0.7953 -0.0157 0.6061
vn 0.7944 -0.0123 0.6073
vn 0.7943 0.0157 -0.6073
vn -0.7953 0.0123 -0.6060
vn -0.0020 0.5554 -0.8316
vn 0.0020 -0.5536 0.8328
vn 0.4325 0.8379 0.3330
vn -0.4345 0.8385 -0.3288
vn 0.0019 -0.5261 -0.8504
vn 0.0000 0.5544 -0.8322
vn -0.4401 0.8339 0.3330
vn 0.0019 -0.5279 -0.8493
vn 0.0000 0.5269 0.8499
vn 0.4269 0.8424 -0.3288
usemtl Material
s off
f 6/1/1 1/2/1 3/3/1 7/4/1
f 6/1/2 7/4/2 8/5/2 5/6/2
f 1/2/3 6/1/3 5/6/3 2/7/3
f 7/4/4 3/3/4 4/8/4 8/5/4
f 3/3/5 1/2/5 2/9/5 4/10/5
f 4/10/6 2/9/6 9/11/6 10/12/6
f 8/5/6 4/8/6 10/13/6 12/14/6
f 5/6/6 8/5/6 12/14/6 11/15/6
f 2/7/6 5/6/6 11/15/6 9/16/6
f 9/16/7 11/15/7 15/17/7 13/18/7
f 12/14/8 10/13/8 14/19/8 16/20/8
f 11/15/9 12/14/9 16/20/9 15/17/9
f 10/12/10 9/11/10 13/21/10 14/22/10
f 16/20/6 14/19/6 18/23/6 20/24/6
f 15/17/6 16/20/6 20/24/6 19/25/6
f 14/22/6 13/21/6 17/26/6 18/27/6
f 13/18/6 15/17/6 19/25/6 17/28/6
f 18/27/11 17/26/11 21/29/11 22/30/11
f 17/28/12 19/25/12 23/31/12 21/32/12
f 20/24/13 18/23/13 22/33/13 24/34/13
f 19/25/14 20/24/14 24/34/14 23/31/14
f 24/34/15 22/33/15 26/35/15 28/36/15
f 23/31/16 24/34/16 28/36/16 27/37/16
f 22/30/17 21/29/17 25/38/17 26/39/17
f 21/32/18 23/31/18 27/37/18 25/40/18
f 28/36/19 26/35/19 30/41/19 32/42/19
f 27/37/20 28/36/20 32/42/20 31/43/20
f 26/39/21 25/38/21 29/44/21 30/45/21
f 25/40/22 27/37/22 31/43/22 29/46/22
f 32/42/23 30/41/23 34/47/23 36/48/23
f 31/43/24 32/42/24 36/48/24 35/49/24
f 30/45/25 29/44/25 33/50/25 34/51/25
f 29/46/26 31/43/26 35/49/26 33/52/26
f 35/49/6 36/48/6 40/53/6 39/54/6
f 34/51/6 33/50/6 37/55/6 38/56/6
f 33/52/6 35/49/6 39/54/6 37/57/6
f 36/48/6 34/47/6 38/58/6 40/53/6
f 38/56/27 37/55/27 41/59/27 42/60/27
f 37/57/28 39/54/28 43/61/28 41/62/28
f 40/53/29 38/58/29 42/63/29 44/64/29
f 39/54/30 40/53/30 44/64/30 43/61/30
f 44/64/31 42/63/31 46/65/31 48/66/31
f 43/61/32 44/64/32 48/66/32 47/67/32
f 42/60/33 41/59/33 45/68/33 46/69/33
f 41/62/34 43/61/34 47/67/34 45/70/34
f 48/66/35 46/65/35 50/71/35 52/72/35
f 47/67/30 48/66/30 52/72/30 51/73/30
f 46/69/27 45/68/27 49/74/27 50/75/27
f 45/70/36 47/67/36 51/73/36 49/76/36
f 52/72/37 50/71/37 54/77/37 56/78/37
f 51/73/38 52/72/38 56/78/38 55/79/38
f 50/75/39 49/74/39 53/80/39 54/81/39
f 49/76/40 51/73/40 55/79/40 53/82/40
f 55/79/30 56/78/30 60/83/30 59/84/30
f 54/81/27 53/80/27 57/85/27 58/86/27
f 53/82/28 55/79/28 59/84/28 57/87/28
f 56/78/29 54/77/29 58/88/29 60/83/29
f 58/86/41 57/85/41 61/89/41 62/90/41
f 57/87/42 59/84/42 63/91/42 61/92/42
f 60/83/43 58/88/43 62/93/43 64/94/43
f 59/84/44 60/83/44 64/94/44 63/91/44
f 64/94/35 62/93/35 67/95/35 69/96/35
f 64/94/45 69/96/45 70/97/45 71/98/45 76/99/45 77/100/45
f 61/92/36 63/91/36 68/101/36 66/102/36
f 68/101/46 63/91/46 78/103/46 79/104/46 72/105/46 73/106/46
f 63/91/6 64/94/6 77/100/6 78/103/6
f 67/95/45 62/93/45 86/107/45 87/108/45 82/109/45 83/110/45
f 61/92/46 66/102/46 80/111/46 81/112/46 84/113/46 85/114/46
f 62/90/6 61/89/6 85/115/6 86/116/6
f 73/106/47 72/105/47 95/117/47 94/118/47
f 69/119/48 68/120/48 73/121/48 70/122/48
f 64/94/6 63/91/6 74/123/6 75/124/6
f 76/99/49 79/104/49 78/103/49 77/100/49
f 79/104/6 76/99/6 71/98/6 72/105/6
f 82/125/50 81/126/50 88/127/50 91/128/50
f 66/129/48 67/130/48 83/131/48 80/132/48
f 84/133/51 87/134/51 86/116/51 85/115/51
f 87/134/6 84/133/6 81/126/6 82/125/6
f 89/135/52 90/136/52 91/128/52 88/127/52
f 80/132/53 83/131/53 90/137/53 89/138/53
f 83/110/54 82/109/54 91/139/54 90/140/54
f 81/112/55 80/111/55 89/141/55 88/142/55
f 93/143/56 94/118/56 95/117/56 92/144/56
f 71/98/57 70/97/57 93/143/57 92/144/57
f 72/105/58 71/98/58 92/144/58 95/117/58
f 70/122/59 73/121/59 94/145/59 93/146/59
f 66/102/36 68/101/36 98/147/36 96/148/36
f 69/96/35 67/95/35 97/149/35 99/150/35
f 69/96/45 99/150/45 106/151/45 104/152/45
f 66/102/46 96/148/46 102/153/46 100/154/46
f 97/149/45 67/95/45 101/155/45 103/156/45
f 67/130/60 66/129/60 100/157/60 101/158/60
f 96/159/48 97/160/48 103/161/48 102/162/48
f 106/163/48 107/164/48 118/165/48 119/166/48 116/167/48 117/168/48
f 68/120/60 69/119/60 104/169/60 105/170/60
f 99/171/48 98/172/48 107/164/48 106/163/48
f 98/147/46 68/101/46 105/173/46 107/174/46
f 104/152/6 106/151/6 117/175/6 112/176/6
f 114/177/30 113/178/30 116/167/30 119/166/30
f 107/174/6 105/173/6 115/179/6 118/180/6
f 110/181/61 109/182/61 108/183/61 111/184/61
f 118/180/6 115/179/6 111/184/6 108/183/6
f 116/167/6 113/178/6 122/185/6 121/186/6
f 105/170/60 104/169/60 112/187/60 113/178/60 114/177/60 115/188/60
f 121/189/62 122/190/62 123/191/62 120/192/62
f 114/177/6 119/166/6 109/193/6 110/194/6
f 113/178/6 112/187/6 123/195/6 122/185/6
f 117/168/6 116/167/6 121/186/6 120/196/6
f 119/166/6 118/165/6 108/197/6 109/193/6
f 115/188/6 114/177/6 110/194/6 111/198/6
f 112/176/6 117/175/6 120/192/6 123/191/6
f 100/154/6 102/153/6 129/199/6 124/200/6
f 103/156/6 101/155/6 127/201/6 130/202/6
f 126/203/27 125/204/27 128/205/27 131/206/27
f 102/162/48 103/161/48 130/207/48 131/206/48 128/205/48 129/208/48
f 128/209/63 125/210/63 124/200/63 129/199/63
f 126/211/64 131/212/64 130/202/64 127/201/64
f 101/158/60 100/157/60 124/213/60 125/204/60 126/203/60 127/214/60
f 103/156/46 97/149/46 133/215/46 137/216/46
f 96/148/45 102/153/45 136/217/45 132/218/45
f 116/167/65 117/168/65 141/219/65 140/220/65
f 99/150/35 97/149/35 133/215/35 135/221/35
f 130/207/66 131/206/66 147/222/66 146/223/66
f 98/172/46 107/164/46 139/224/46 134/225/46
f 128/205/67 129/208/67 145/226/67 144/227/67
f 99/150/46 106/151/46 138/228/46 135/221/46
f 118/165/68 119/166/68 143/229/68 142/230/68
f 96/148/36 98/147/36 134/231/36 132/218/36
f 134/225/69 139/224/69 155/232/69 150/233/69
f 132/218/70 136/217/70 152/234/70 148/235/70
f 146/223/71 147/222/71 163/236/71 162/237/71
f 142/230/72 143/229/72 159/238/72 158/239/72
f 137/216/73 133/215/73 149/240/73 153/241/73
f 132/218/74 134/231/74 150/242/74 148/235/74
f 140/220/75 141/219/75 157/243/75 156/244/75
f 135/221/76 138/228/76 154/245/76 151/246/76
f 135/221/77 133/215/77 149/240/77 151/246/77
f 144/227/78 145/226/78 161/247/78 160/248/78
l 54 65
